<?xml version="1.0" encoding="UTF-8"?>
<svg width="1024px" height="174px" viewBox="0 0 1024 174" version="1.1" xmlns="http://www.w3.org/2000/svg" xmlns:xlink="http://www.w3.org/1999/xlink">
    <!-- Generator: Sketch 50.2 (55047) - http://www.bohemiancoding.com/sketch -->
    <title>Combined Shape</title>
    <desc>Created with Sketch.</desc>
    <defs></defs>
    <g id="Welcome" stroke="none" stroke-width="1" fill="none" fill-rule="evenodd">
        <g id="Desktop" fill="#FFFFFF">
            <path d="M1024,171.957542 C1007.43828,157.06324 985.527559,148 961.5,148 C941.603374,148 923.158278,154.214741 908.000002,164.808935 C892.841724,154.214742 874.396627,148 854.5,148 C834.384082,148 815.751868,154.352488 800.5,165.160821 C785.248132,154.352488 766.615918,148 746.5,148 C726.603374,148 708.158278,154.214741 693.000002,164.808935 C677.841724,154.214742 659.396627,148 639.5,148 C619.603374,148 601.158278,154.214741 586.000002,164.808935 C570.841724,154.214742 552.396627,148 532.5,148 C510.128668,148 489.5924,155.856839 473.5,168.961711 C457.4076,155.856839 436.871332,148 414.5,148 C392.589451,148 372.439151,155.536517 356.5,168.158648 C340.560849,155.536517 320.410549,148 298.5,148 C276.359707,148 256.016771,155.695394 240,168.557373 C223.983229,155.695394 203.640293,148 181.5,148 C159.359707,148 139.016771,155.695394 123,168.557373 C106.983229,155.695394 86.6402926,148 64.5,148 C39.4922269,148 16.777524,157.817801 -5.32907052e-15,173.809294 L0,0 L1024,0 L1024,171.957542 Z" id="Combined-Shape"></path>
        </g>
    </g>
</svg>